<svg xmlns="http://www.w3.org/2000/svg" xmlns:xlink="http://www.w3.org/1999/xlink" width="500" zoomAndPan="magnify" viewBox="0 0 375 374.999991" height="500" preserveAspectRatio="xMidYMid meet" version="1.0"><defs><clipPath id="f1f445b663"><path d="M 17.574219 24 L 357 24 L 357 351.195312 L 17.574219 351.195312 Z M 17.574219 24 " clip-rule="nonzero"/></clipPath></defs><g clip-path="url(#f1f445b663)"><path fill="#000000" d="M 351.050781 123.445312 L 315.222656 123.445312 L 346.085938 64.535156 C 346.085938 64.523438 346.09375 64.523438 346.09375 64.515625 C 346.09375 64.507812 346.101562 64.5 346.101562 64.5 L 355.851562 45.894531 C 357.242188 43.246094 356.207031 39.96875 353.558594 38.582031 L 327.296875 24.851562 C 324.644531 23.464844 321.367188 24.496094 319.976562 27.144531 L 269.519531 123.457031 L 100.628906 123.457031 L 100.628906 29.652344 C 100.628906 26.644531 98.1875 24.207031 95.179688 24.207031 L 59.136719 24.207031 C 47.886719 24.207031 37.644531 28.753906 30.15625 36.082031 L 29.832031 36.378906 C 22.308594 43.886719 17.640625 54.257812 17.640625 65.667969 L 17.640625 263.6875 C 17.640625 263.699219 17.640625 263.699219 17.640625 263.707031 L 17.640625 309.71875 C 17.640625 321.113281 22.308594 331.472656 29.824219 338.980469 L 29.851562 339.007812 C 37.363281 346.515625 47.734375 351.179688 59.136719 351.179688 L 351.050781 351.179688 C 354.058594 351.179688 356.496094 348.742188 356.496094 345.738281 L 356.496094 128.890625 C 356.496094 125.886719 354.058594 123.445312 351.050781 123.445312 Z M 267.726562 184.300781 L 255.527344 193.804688 L 256.398438 178.375 L 267.371094 184.113281 Z M 275.410156 176.089844 L 260.828125 168.460938 L 258.753906 167.378906 L 277.382812 131.820312 C 277.5625 131.546875 277.714844 131.261719 277.832031 130.957031 L 317.316406 55.585938 L 333.964844 64.296875 L 301.644531 125.996094 C 301.476562 126.257812 301.332031 126.527344 301.210938 126.816406 Z M 327.085938 36.964844 L 343.730469 45.675781 L 339.003906 54.699219 L 322.355469 45.988281 Z M 28.535156 65.667969 C 28.535156 57.261719 31.984375 49.617188 37.523438 44.074219 L 37.777344 43.804688 C 43.300781 38.421875 50.851562 35.09375 59.136719 35.09375 L 89.734375 35.09375 L 89.734375 241.054688 L 59.136719 241.054688 C 47.734375 241.054688 37.363281 245.71875 29.851562 253.226562 L 28.535156 254.582031 Z M 345.601562 340.292969 L 59.136719 340.292969 C 50.714844 340.292969 43.066406 336.855469 37.515625 331.320312 C 31.976562 325.777344 28.535156 318.132812 28.535156 309.71875 L 28.535156 282.503906 C 28.535156 274.101562 31.984375 266.457031 37.515625 260.902344 C 43.066406 255.367188 50.714844 251.929688 59.136719 251.929688 L 95.179688 251.929688 C 98.1875 251.929688 100.628906 249.492188 100.628906 246.488281 L 100.628906 134.332031 L 263.835938 134.332031 L 246.648438 167.148438 C 246.648438 167.148438 246.640625 167.160156 246.640625 167.160156 C 246.605469 167.226562 246.582031 167.292969 246.546875 167.363281 C 246.496094 167.464844 246.445312 167.566406 246.402344 167.675781 C 246.359375 167.777344 246.328125 167.886719 246.292969 167.988281 C 246.265625 168.054688 246.242188 168.125 246.226562 168.199219 C 246.183594 168.34375 246.148438 168.488281 246.125 168.632812 C 246.113281 168.65625 246.105469 168.683594 246.105469 168.714844 C 246.0625 168.9375 246.039062 169.15625 246.023438 169.375 L 244.015625 205.148438 C 243.851562 208.144531 246.148438 210.699219 249.140625 210.859375 C 250.605469 210.9375 251.960938 210.4375 252.984375 209.550781 L 281.042969 187.675781 C 281.066406 187.660156 281.085938 187.632812 281.109375 187.617188 C 281.167969 187.574219 281.21875 187.523438 281.28125 187.472656 C 281.363281 187.398438 281.441406 187.328125 281.523438 187.253906 C 281.566406 187.210938 281.601562 187.167969 281.644531 187.136719 C 281.730469 187.042969 281.820312 186.949219 281.898438 186.847656 C 281.921875 186.820312 281.941406 186.796875 281.957031 186.761719 C 282.050781 186.644531 282.144531 186.523438 282.21875 186.398438 C 282.226562 186.382812 282.246094 186.363281 282.253906 186.347656 C 282.339844 186.210938 282.421875 186.078125 282.5 185.933594 C 282.5 185.925781 282.507812 185.925781 282.507812 185.914062 L 309.523438 134.339844 L 345.601562 134.339844 Z M 253.738281 226.082031 C 250.730469 226.082031 248.292969 228.519531 248.292969 231.523438 L 248.292969 254.003906 C 240.761719 255.171875 234.019531 258.738281 228.867188 263.882812 L 228.867188 263.910156 C 222.503906 270.265625 218.566406 279.050781 218.566406 288.742188 C 218.566406 298.285156 222.386719 306.933594 228.570312 313.273438 L 228.875 313.605469 C 235.238281 319.960938 244.039062 323.898438 253.746094 323.898438 C 263.296875 323.898438 271.953125 320.082031 278.296875 313.902344 L 278.628906 313.597656 C 283.777344 308.449219 287.335938 301.710938 288.515625 294.1875 L 311.023438 294.1875 C 314.03125 294.1875 316.46875 291.75 316.46875 288.742188 L 316.46875 231.53125 C 316.46875 228.527344 314.03125 226.089844 311.023438 226.089844 L 253.738281 226.089844 Z M 259.179688 265.085938 C 263.703125 266.117188 267.742188 268.402344 270.910156 271.570312 C 274.070312 274.734375 276.359375 278.773438 277.398438 283.292969 L 259.179688 283.292969 Z M 270.910156 305.894531 L 270.664062 306.15625 C 266.292969 310.386719 260.320312 313.003906 253.738281 313.003906 C 247.03125 313.003906 240.957031 310.285156 236.566406 305.902344 L 236.304688 305.65625 C 232.070312 301.289062 229.453125 295.320312 229.453125 288.742188 C 229.453125 282.03125 232.171875 275.960938 236.558594 271.585938 C 239.726562 268.421875 243.769531 266.136719 248.285156 265.101562 L 248.285156 288.753906 C 248.285156 291.757812 250.722656 294.195312 253.730469 294.195312 L 277.390625 294.195312 C 276.367188 298.691406 274.070312 302.726562 270.910156 305.894531 Z M 305.550781 283.292969 L 288.488281 283.292969 C 287.320312 275.769531 283.761719 269.03125 278.601562 263.882812 L 278.578125 263.882812 C 273.425781 258.738281 266.691406 255.183594 259.167969 254.015625 L 259.167969 236.964844 L 305.53125 236.964844 L 305.53125 283.292969 Z M 113.351562 170.628906 C 113.351562 167.625 115.792969 165.1875 118.800781 165.1875 L 187.671875 165.1875 C 190.679688 165.1875 193.117188 167.625 193.117188 170.628906 C 193.117188 173.632812 190.679688 176.070312 187.671875 176.070312 L 118.800781 176.070312 C 115.792969 176.070312 113.351562 173.632812 113.351562 170.628906 Z M 113.351562 221.203125 C 113.351562 218.199219 115.792969 215.761719 118.800781 215.761719 L 214.5 215.761719 C 217.507812 215.761719 219.945312 218.199219 219.945312 221.203125 C 219.945312 224.210938 217.507812 226.648438 214.5 226.648438 L 118.800781 226.648438 C 115.792969 226.648438 113.351562 224.210938 113.351562 221.203125 Z M 113.351562 195.914062 C 113.351562 192.90625 115.792969 190.46875 118.800781 190.46875 L 187.671875 190.46875 C 190.679688 190.46875 193.117188 192.90625 193.117188 195.914062 C 193.117188 198.917969 190.679688 201.355469 187.671875 201.355469 L 118.800781 201.355469 C 115.792969 201.355469 113.351562 198.917969 113.351562 195.914062 Z M 219.9375 246.488281 C 219.9375 249.492188 217.5 251.929688 214.492188 251.929688 L 118.800781 251.929688 C 115.792969 251.929688 113.351562 249.492188 113.351562 246.488281 C 113.351562 243.484375 115.792969 241.046875 118.800781 241.046875 L 214.5 241.046875 C 217.5 241.046875 219.9375 243.484375 219.9375 246.488281 Z M 84.4375 278.492188 L 57.128906 278.492188 C 54.121094 278.492188 51.679688 280.929688 51.679688 283.9375 L 51.679688 311.9375 C 51.679688 314.941406 54.121094 317.378906 57.128906 317.378906 L 84.4375 317.378906 C 87.445312 317.378906 89.886719 314.941406 89.886719 311.9375 L 89.886719 283.9375 C 89.886719 280.929688 87.445312 278.492188 84.4375 278.492188 Z M 78.992188 306.496094 L 62.574219 306.496094 L 62.574219 289.371094 L 78.992188 289.371094 Z M 139.054688 278.492188 L 111.742188 278.492188 C 108.734375 278.492188 106.296875 280.929688 106.296875 283.9375 L 106.296875 311.9375 C 106.296875 314.941406 108.734375 317.378906 111.742188 317.378906 L 139.054688 317.378906 C 142.0625 317.378906 144.5 314.941406 144.5 311.9375 L 144.5 283.9375 C 144.5 280.929688 142.0625 278.492188 139.054688 278.492188 Z M 133.605469 306.496094 L 117.191406 306.496094 L 117.191406 289.371094 L 133.605469 289.371094 Z M 193.667969 278.492188 L 166.355469 278.492188 C 163.351562 278.492188 160.910156 280.929688 160.910156 283.9375 L 160.910156 311.9375 C 160.910156 314.941406 163.351562 317.378906 166.355469 317.378906 L 193.667969 317.378906 C 196.675781 317.378906 199.117188 314.941406 199.117188 311.9375 L 199.117188 283.9375 C 199.117188 280.929688 196.675781 278.492188 193.667969 278.492188 Z M 188.222656 306.496094 L 171.804688 306.496094 L 171.804688 289.371094 L 188.222656 289.371094 Z M 188.222656 306.496094 " fill-opacity="1" fill-rule="nonzero"/></g></svg>